# xmcd CD database file
#
# Track frame offsets:
#	150
#	11865
#	23717
#	35555
#	50085
#	64350
#	78667
#	93462
#	108060
#	121762
#	137270
#	152995
#	166580
#	181320
#	193990
#	207507
#	222222
#	234445
#
# Disc length: 3313 seconds
#
# Revision: 0
# Processed by: cddbd v1.5.2PL0 Copyright (c) Steve Scherf et al.
# Submitted via: CDex 1.51
#
DISCID=f70cef12
DTITLE=Erskine Hawkins - The Complete Erskine Hawkins  (1938-1939) Disk 2
DYEAR=2002
DGENRE=Jazz
TTITLE0=Big Wig In The Wigwam
TTITLE1=Polka Dotty
TTITLE2=No Soap ( A Jitterbug Jamboree)
TTITLE3=Swingin' on Lenox Avenue
TTITLE4=Hot Platter
TTITLE5=Gin Mill Special
TTITLE6=Cherry
TTITLE7=Tuxedo Junction
TTITLE8=Weddin' Blues
TTITLE9=You Can't Escape From Me
TTITLE10=Rehealsal In Love
TTITLE11=Satan Does The Rhumba
TTITLE12=More Than You Know
TTITLE13=Uptown Shuffle
TTITLE14=I Hadn't Anyony 'Till You
TTITLE15=Baltimore Bounce
TTITLE16=Fine And Mellow
TTITLE17=Saboo
EXTD=YEAR: 2002
EXTT0=
EXTT1=
EXTT2=
EXTT3=
EXTT4=
EXTT5=
EXTT6=
EXTT7=
EXTT8=
EXTT9=
EXTT10=
EXTT11=
EXTT12=
EXTT13=
EXTT14=
EXTT15=
EXTT16=
EXTT17=
PLAYORDER=
